<svg width="28" height="26" viewBox="0 0 28 26" fill="none" xmlns="http://www.w3.org/2000/svg">
<path d="M14 0.583008L18.9303 7.79651L27.3151 10.257L21.9776 17.1753L22.2285 25.909L14 22.9713L5.77148 25.909L6.02231 17.1753L0.684814 10.257L9.06965 7.79651L14 0.583008ZM14 4.71767L10.5256 9.80201L4.61648 11.5345L8.37898 16.4088L8.20048 22.563L14 20.4933L19.7983 22.563L19.621 16.4088L23.3823 11.5345L17.4743 9.80201L14 4.71767ZM11.6666 13.9997C11.6666 14.6185 11.9125 15.212 12.3501 15.6496C12.7877 16.0872 13.3811 16.333 14 16.333C14.6188 16.333 15.2123 16.0872 15.6499 15.6496C16.0875 15.212 16.3333 14.6185 16.3333 13.9997H18.6666C18.6666 15.2374 18.175 16.4243 17.2998 17.2995C16.4246 18.1747 15.2377 18.6663 14 18.6663C12.7623 18.6663 11.5753 18.1747 10.7001 17.2995C9.82498 16.4243 9.33331 15.2374 9.33331 13.9997H11.6666Z" fill="#111111"/>
</svg>
