<svg width="100" height="100" viewBox="0 0 100 100" fill="none" xmlns="http://www.w3.org/2000/svg">
<path d="M43.1034 16.5276C19.2983 16.5276 0 33.8293 0 55.1724C0 63.0379 2.62759 70.35 7.12931 76.4534C6.53793 83.5052 4.83621 93.4379 0 98.2759C0 98.2759 14.6034 96.2224 24.6086 90.2569C24.619 90.25 24.6241 90.2397 24.6328 90.2345C27.7259 88.3276 31.2 86.1017 32.05 85.4362C32.569 84.7172 33.5655 84.5 34.3397 84.969C34.8534 85.281 35.1793 85.8517 35.181 86.4517C35.1862 87.4552 35.1672 87.7345 28.8862 91.6552C33.3379 93.0517 38.119 93.8172 43.1017 93.8172C66.9069 93.8172 86.2052 76.5155 86.2052 55.1724C86.2052 33.8293 66.9086 16.5276 43.1034 16.5276Z" fill="#007456"/>
<path opacity="0.5" d="M99.9992 40.3689C99.9992 19.0258 80.7009 1.72412 56.8958 1.72412C39.7061 1.72412 24.8699 10.7483 17.9492 23.8C25.0303 19.2293 33.7113 16.5276 43.1027 16.5276C66.9078 16.5276 86.2061 33.8293 86.2061 55.1724C86.2061 63.3362 83.3751 70.9034 78.5561 77.1431C88.2096 81.8069 99.9992 83.4724 99.9992 83.4724C95.163 78.6362 93.4613 68.7034 92.8699 61.65C97.3716 55.5465 99.9992 48.2345 99.9992 40.3689Z" fill="#007456"/>
<path d="M56.0339 44.8277H31.896C30.9443 44.8277 30.1719 44.057 30.1719 43.1035C30.1719 42.1501 30.9443 41.3794 31.896 41.3794H56.0339C56.9857 41.3794 57.7581 42.1501 57.7581 43.1035C57.7581 44.057 56.9857 44.8277 56.0339 44.8277Z" fill="white"/>
<path d="M65.517 56.8965H22.4136C21.4619 56.8965 20.6895 56.1258 20.6895 55.1724C20.6895 54.2189 21.4619 53.4482 22.4136 53.4482H65.517C66.4688 53.4482 67.2412 54.2189 67.2412 55.1724C67.2412 56.1258 66.4688 56.8965 65.517 56.8965Z" fill="white"/>
<path d="M65.517 68.9656H22.4136C21.4619 68.9656 20.6895 68.1949 20.6895 67.2415C20.6895 66.288 21.4619 65.5173 22.4136 65.5173H65.517C66.4688 65.5173 67.2412 66.288 67.2412 67.2415C67.2412 68.1949 66.4688 68.9656 65.517 68.9656Z" fill="white"/>
</svg>
